<svg xmlns="http://www.w3.org/2000/svg" viewBox="0 0 100 100" role="img" aria-label="青简">
  <defs>
    <linearGradient id="qj-tile" x1="0" y1="0" x2="0" y2="1">
      <stop offset="0" stop-color="#608c6d"/>
      <stop offset="1" stop-color="#447252"/>
    </linearGradient>
  </defs>
  <rect width="100" height="100" rx="23.5" fill="url(#qj-tile)"/>
  <rect x="8.5" y="8.5" width="83" height="83"
        rx="18.4" fill="none" stroke="#ffffff" stroke-opacity="0.38" stroke-width="0.9"/>
  <path d="M44.58 58.95V67.36H55.69V58.95ZM29.93 45.12Q29.93 74.41 30.2 80.1L26.14 82Q26.41 69.53 26.41 56.92Q26.41 44.31 26.14 39.97L32.1 42.68ZM31.29 34Q37.53 37.25 38.47 38.75Q39.42 40.24 39.42 41.32Q39.42 42.14 38.88 43.22Q38.34 44.31 37.25 44.85Q36.17 45.39 35.9 43.49Q35.36 41.86 34.27 39.69Q33.19 37.53 30.75 35.08ZM60.03 74.41Q64.92 74.95 66.95 75.08Q68.98 75.22 70.07 74.95Q71.15 74.68 71.15 73.05V39.69H50.81Q48.64 39.69 45.66 40.51L43.22 38.07H70.88L73.32 35.63L77.12 39.42L74.68 41.05V74.95Q74.68 76.85 73.86 78.34Q73.05 79.83 69.53 81.19Q68.44 77.12 60.03 75.49ZM40.78 73.32Q41.05 64.37 41.05 56.51Q41.05 48.64 40.78 45.12L44.58 47.56H55.97L57.59 44.85L61.93 48.64L59.22 50.81Q59.22 66.81 59.76 70.07L55.69 71.69V68.98H44.58V71.69ZM44.58 49.19V57.32H55.69V49.19ZM36.98 22.07 34.81 22.88 32.1 26.14H44.03L47.02 23.15L51.36 27.76H36.71Q40.78 29.66 41.46 31.02Q42.14 32.37 42.14 32.92Q42.14 33.46 41.59 34.54Q41.05 35.63 39.97 35.9Q38.88 36.17 38.61 34.27Q38.07 32.64 37.39 31.15Q36.71 29.66 35.08 27.76H31.02Q29.12 29.39 26.68 32.1Q23.97 35.08 20.44 37.8L19.9 36.98Q23.42 33.19 26.81 28.03Q30.2 22.88 31.83 18ZM62.2 21.8 59.76 22.88 57.32 26.14H72.78L75.76 23.15L80.1 27.76H62.2Q67.08 30.2 67.49 31.15Q67.9 32.1 67.9 32.64Q67.9 33.19 67.63 33.86Q67.36 34.54 66.68 35.08Q66 35.63 65.73 35.63Q65.19 35.63 64.78 34.68Q64.37 33.73 63.83 31.83Q63.29 30.2 61.12 27.76H56.51Q52.44 32.1 47.83 35.9L47.02 35.08Q51.08 30.47 53.66 25.73Q56.24 20.98 57.32 18.27Z" fill="#ffffff" stroke="#ffffff" stroke-width="3"
        stroke-linejoin="round"/>
</svg>
